<svg width="61" height="61" viewBox="0 0 53 39" fill="none" xmlns="http://www.w3.org/2000/svg">
<path d="M2.89293 0.343769C2.31513 0.343769 1.76101 0.544606 1.35244 0.902098C0.943883 1.25959 0.714355 1.74445 0.714355 2.25002C0.714355 2.75559 0.943883 3.24045 1.35244 3.59794C1.76101 3.95543 2.31513 4.15627 2.89293 4.15627H7.72936L13.4459 24.1719C13.9317 25.8685 15.6681 27.0313 17.6658 27.0313H42.654C44.6213 27.0313 46.2923 25.8875 46.8086 24.2291L52.4554 6.06252H15.9644L17.0536 9.87502H46.8042L42.6519 23.2188H17.6636L11.9492 3.20315C11.7132 2.38199 11.169 1.65389 10.4039 1.13546C9.63883 0.617029 8.69703 0.338251 7.72936 0.343769H2.89293ZM39.9286 27.0313C36.3449 27.0313 33.3929 29.6142 33.3929 32.75C33.3929 35.8858 36.3449 38.4688 39.9286 38.4688C43.5124 38.4688 46.4644 35.8858 46.4644 32.75C46.4644 29.6142 43.5124 27.0313 39.9286 27.0313ZM20.3215 27.0313C16.7377 27.0313 13.7858 29.6142 13.7858 32.75C13.7858 35.8858 16.7377 38.4688 20.3215 38.4688C23.9052 38.4688 26.8572 35.8858 26.8572 32.75C26.8572 29.6142 23.9052 27.0313 20.3215 27.0313ZM20.3215 30.8438C21.5502 30.8438 22.5001 31.6749 22.5001 32.75C22.5001 33.8251 21.5502 34.6563 20.3215 34.6563C19.0928 34.6563 18.1429 33.8251 18.1429 32.75C18.1429 31.6749 19.0928 30.8438 20.3215 30.8438ZM39.9286 30.8438C41.1574 30.8438 42.1072 31.6749 42.1072 32.75C42.1072 33.8251 41.1574 34.6563 39.9286 34.6563C38.6999 34.6563 37.7501 33.8251 37.7501 32.75C37.7501 31.6749 38.6999 30.8438 39.9286 30.8438Z" fill="#E77634"/>
</svg>
