<svg width="47" height="47" viewBox="0 0 41 37" fill="none" xmlns="http://www.w3.org/2000/svg">
<path d="M20.5 36.125C19.2369 35.0048 17.8092 33.8396 16.2994 32.6H16.2798C10.9629 28.2525 4.93711 23.3332 2.27573 17.4386C1.40232 15.5625 0.93819 13.5219 0.916648 11.45C0.913747 10.0439 1.19182 8.65136 1.73453 7.35419C2.27725 6.05703 3.07366 4.88137 4.07702 3.89626C5.08038 2.91114 6.27045 2.13643 7.57736 1.6176C8.88426 1.09878 10.2817 0.846302 11.6875 0.875002C13.9995 0.878654 16.2618 1.54687 18.2048 2.80004C19.0586 3.35419 19.8311 4.0245 20.5 4.79167C21.1736 4.02792 21.9452 3.35817 22.7971 2.80004C24.7393 1.54662 27.001 0.878367 29.3125 0.875002C30.7183 0.846302 32.1157 1.09878 33.4226 1.6176C34.7295 2.13643 35.9196 2.91114 36.9229 3.89626C37.9263 4.88137 38.7227 6.05703 39.2654 7.35419C39.8081 8.65136 40.0862 10.0439 40.0833 11.45C40.0634 13.5235 39.6 15.5688 38.7242 17.4484C36.0629 23.343 30.039 28.2603 24.7221 32.6L24.7026 32.6157C23.1907 33.8475 21.7651 35.0127 20.5019 36.1407L20.5 36.125ZM11.6875 4.79167C9.86331 4.76884 8.10387 5.46699 6.79165 6.73434C6.16587 7.34902 5.67004 8.08322 5.33362 8.89331C4.99721 9.7034 4.82707 10.5729 4.83331 11.45C4.85486 12.9579 5.19757 14.4463 5.83598 15.8132C7.09231 18.3564 8.78743 20.6582 10.8434 22.6125C12.7841 24.5708 15.0166 26.4665 16.9476 28.0606C17.4822 28.5012 18.0266 28.9458 18.571 29.3903L18.9137 29.6703C19.4366 30.0973 19.9771 30.5398 20.5 30.9746L20.5254 30.9511L20.5372 30.9413H20.5489L20.5666 30.9276H20.5861L20.6214 30.8982L20.7017 30.8336L20.7154 30.8218L20.7369 30.8062H20.7487L20.7663 30.7905L22.0666 29.7232L22.4074 29.4432C22.9577 28.9947 23.5021 28.5502 24.0367 28.1095C25.9676 26.5155 28.2021 24.6218 30.1428 22.6536C32.1992 20.7004 33.8944 18.3992 35.1503 15.8563C35.8004 14.4776 36.149 12.9736 36.1686 11.45C36.1724 10.5754 36.0009 9.70883 35.6642 8.90159C35.3275 8.09434 34.8325 7.36274 34.2083 6.75C32.8986 5.47693 31.1389 4.77303 29.3125 4.79167C28.2106 4.7823 27.1192 5.00622 26.11 5.44871C25.1008 5.8912 24.1967 6.54224 23.4571 7.35904L20.5 10.7665L17.5429 7.35904C16.8033 6.54224 15.8991 5.8912 14.8899 5.44871C13.8808 5.00622 12.7894 4.7823 11.6875 4.79167Z" fill="#E77634"/>
</svg>
