<svg width="53" height="53" viewBox="0 0 37 37" fill="none" xmlns="http://www.w3.org/2000/svg">
<path d="M18.5 0.833313C20.8428 0.833313 23.0896 1.76396 24.7462 3.42054C26.4027 5.07711 27.3334 7.3239 27.3334 9.66665C27.3334 12.0094 26.4027 14.2562 24.7462 15.9128C23.0896 17.5693 20.8428 18.5 18.5 18.5C16.1573 18.5 13.9105 17.5693 12.2539 15.9128C10.5974 14.2562 9.66671 12.0094 9.66671 9.66665C9.66671 7.3239 10.5974 5.07711 12.2539 3.42054C13.9105 1.76396 16.1573 0.833313 18.5 0.833313ZM18.5 5.24998C17.3287 5.24998 16.2053 5.71531 15.377 6.54359C14.5487 7.37188 14.0834 8.49527 14.0834 9.66665C14.0834 10.838 14.5487 11.9614 15.377 12.7897C16.2053 13.618 17.3287 14.0833 18.5 14.0833C19.6714 14.0833 20.7948 13.618 21.6231 12.7897C22.4514 11.9614 22.9167 10.838 22.9167 9.66665C22.9167 8.49527 22.4514 7.37188 21.6231 6.54359C20.7948 5.71531 19.6714 5.24998 18.5 5.24998ZM18.5 20.7083C24.3963 20.7083 36.1667 23.6454 36.1667 29.5416V36.1666H0.833374V29.5416C0.833374 23.6454 12.6038 20.7083 18.5 20.7083ZM18.5 24.9041C11.9413 24.9041 5.02921 28.1283 5.02921 29.5416V31.9708H31.9709V29.5416C31.9709 28.1283 25.0588 24.9041 18.5 24.9041Z" fill="#E77634"/>
</svg>
